<?xml version="1.0" standalone="no"?>
<!DOCTYPE svg PUBLIC "-//W3C//DTD SVG 20010904//EN"
 "http://www.w3.org/TR/2001/REC-SVG-20010904/DTD/svg10.dtd">
<svg version="1.0" xmlns="http://www.w3.org/2000/svg"
 width="1042.000000pt" height="1042.000000pt" viewBox="0 0 1042.000000 1042.000000"
 preserveAspectRatio="xMidYMid meet">
<metadata>
Created by potrace 1.11, written by Peter Selinger 2001-2013
</metadata>
<g transform="translate(0.000000,1042.000000) scale(0.100000,-0.100000)"
fill="#000000" stroke="none">
<path d="M4706 10163 c-1 -1 -255 -3 -564 -4 l-562 -1 -52 -39 c-29 -21 -66
-49 -82 -61 -17 -13 -33 -22 -38 -21 -4 2 -8 -1 -8 -6 0 -5 -15 -19 -33 -30
-18 -11 -42 -28 -54 -38 -12 -10 -31 -25 -43 -33 -13 -8 -45 -32 -71 -52 -27
-21 -53 -38 -59 -38 -5 0 -10 -3 -10 -7 0 -5 -17 -19 -38 -33 -20 -14 -39 -27
-42 -30 -3 -3 -21 -17 -40 -30 -19 -14 -42 -30 -50 -37 -8 -6 -55 -41 -105
-77 -49 -36 -94 -69 -100 -73 -5 -5 -26 -20 -45 -33 -19 -13 -44 -32 -54 -42
-11 -10 -26 -18 -33 -18 -7 0 -13 -4 -13 -8 0 -5 -26 -26 -57 -48 -32 -21 -64
-45 -71 -51 -8 -7 -35 -27 -60 -45 -26 -18 -51 -36 -57 -41 -5 -4 -53 -39
-105 -78 -52 -38 -103 -76 -113 -84 -9 -8 -22 -15 -27 -15 -6 0 -13 -7 -16
-15 -4 -8 -12 -15 -19 -15 -7 0 -15 -3 -17 -7 -1 -5 -25 -24 -53 -43 -27 -19
-54 -38 -60 -42 -8 -7 -87 -65 -183 -136 -13 -9 -45 -33 -71 -52 -26 -19 -91
-66 -144 -105 -102 -73 -283 -208 -304 -225 -7 -6 -16 -10 -19 -9 -4 0 -10 -3
-13 -8 -3 -5 -24 -22 -46 -38 -22 -17 -42 -32 -45 -35 -3 -3 -27 -21 -55 -40
-27 -19 -56 -40 -62 -46 -7 -7 -17 -14 -23 -16 -6 -2 -12 -12 -14 -23 -3 -11
-32 -105 -66 -210 -35 -104 -63 -194 -64 -200 -1 -5 -7 -23 -13 -40 -6 -16
-26 -77 -43 -135 -18 -58 -37 -118 -43 -135 -6 -16 -13 -37 -14 -45 -1 -8 -6
-23 -11 -35 -8 -16 -31 -89 -37 -115 0 -3 -18 -57 -39 -120 -21 -63 -39 -119
-41 -125 -1 -5 -5 -17 -8 -25 -3 -8 -33 -103 -67 -210 -34 -107 -64 -202 -67
-210 -4 -8 -7 -17 -8 -20 0 -3 -9 -32 -20 -65 -10 -33 -19 -63 -21 -67 -1 -5
-2 -9 -4 -10 -1 -2 -3 -10 -5 -18 -3 -16 -99 -313 -142 -440 -14 -41 -26 -82
-28 -90 -2 -8 -16 -51 -30 -95 -15 -44 -28 -84 -29 -90 -1 -5 -4 -14 -8 -20
-3 -5 -9 -26 -14 -45 -10 -42 -9 -41 -17 -60 -10 -27 -49 -145 -52 -160 -2 -8
-10 -34 -19 -58 -8 -23 -16 -46 -17 -50 -2 -11 -6 -22 -28 -93 -20 -62 -21
-68 -5 -110 8 -24 17 -51 19 -59 2 -8 25 -78 50 -155 26 -77 48 -144 49 -150
1 -5 4 -14 7 -20 3 -5 11 -30 18 -55 7 -25 17 -54 22 -65 8 -21 71 -213 75
-230 2 -5 53 -161 114 -345 62 -184 112 -340 113 -347 1 -27 17 1 37 70 12 39
24 79 27 87 4 8 5 18 5 22 -1 5 3 8 9 8 5 0 8 4 4 9 -3 5 -1 20 4 33 6 13 44
131 86 263 93 291 86 269 87 275 1 3 12 37 25 75 14 39 26 77 28 85 2 8 15 51
30 95 15 44 28 85 29 90 1 6 14 46 28 90 62 189 152 470 153 475 1 3 18 57 39
120 21 63 39 122 41 130 2 8 8 27 13 41 6 15 8 30 5 33 -4 3 -2 6 4 6 5 0 10
6 11 13 1 22 10 55 20 74 6 10 10 22 10 26 0 4 7 27 15 50 19 52 60 192 56
192 -1 0 3 10 10 23 11 21 68 195 76 234 2 9 8 25 13 35 6 10 10 20 10 23 1 3
3 12 6 20 14 45 26 86 25 90 0 3 5 19 11 35 10 25 54 164 64 200 2 6 7 21 13
35 5 14 32 96 58 183 27 86 53 157 57 157 10 0 43 -70 40 -82 -1 -5 3 -8 8 -8
6 0 10 -4 10 -10 0 -5 23 -55 50 -111 28 -56 50 -107 50 -115 0 -8 -10 -18
-22 -23 -13 -5 -83 -38 -155 -73 -123 -59 -132 -65 -115 -79 9 -9 31 -33 47
-53 17 -21 39 -49 50 -61 11 -13 34 -41 52 -62 17 -21 39 -48 50 -60 10 -11
32 -38 50 -60 17 -21 39 -48 50 -60 10 -12 29 -36 43 -53 14 -17 34 -42 45
-54 22 -26 39 -46 105 -126 25 -30 47 -57 50 -60 3 -3 35 -41 70 -85 36 -44
67 -82 70 -85 3 -3 25 -30 50 -60 65 -79 92 -111 117 -137 13 -13 23 -27 23
-31 0 -4 15 -23 33 -42 17 -19 49 -56 70 -82 21 -26 43 -53 50 -60 11 -13 89
-107 112 -136 5 -7 21 -24 35 -37 14 -14 22 -25 18 -25 -3 0 10 -17 30 -38 20
-22 48 -54 62 -72 14 -18 30 -38 35 -44 6 -6 39 -46 74 -89 35 -42 66 -75 68
-73 7 7 68 209 80 266 3 14 10 30 15 37 5 7 7 17 3 23 -3 5 -1 10 6 10 7 0 10
3 6 6 -3 3 -1 18 5 33 5 14 11 33 13 41 4 20 115 391 122 410 3 8 7 20 9 25 8
34 63 220 96 325 8 25 15 48 17 52 1 4 3 13 5 20 12 38 67 225 70 238 12 49
29 106 34 115 4 6 7 15 8 21 1 6 10 38 20 70 10 33 18 61 19 64 1 3 7 25 14
50 7 25 30 103 52 174 22 72 41 137 43 145 2 9 8 27 13 41 6 14 14 41 19 60
10 43 9 42 17 60 7 19 40 135 37 135 -1 0 4 14 10 30 7 17 13 37 15 45 7 28
89 304 99 336 2 5 -7 10 -20 10 -13 0 -24 -2 -24 -5 0 -4 -15 -7 -33 -7 -17
-1 -43 -4 -57 -8 -13 -3 -42 -8 -65 -12 -22 -3 -105 -17 -185 -30 -80 -14
-158 -27 -175 -30 -16 -3 -66 -11 -110 -19 -44 -8 -93 -16 -110 -19 -16 -3
-41 -7 -55 -10 -30 -7 -95 -17 -135 -21 -16 -2 -30 -4 -30 -5 0 -2 -26 -7 -75
-15 -25 -3 -64 -10 -87 -16 -22 -5 -62 -11 -87 -13 -26 -3 -50 -7 -54 -10 -4
-2 -28 -7 -52 -10 -25 -3 -56 -8 -70 -11 -14 -3 -41 -8 -60 -10 -19 -2 -46 -7
-60 -10 -14 -3 -41 -8 -60 -11 -19 -3 -46 -7 -60 -10 -14 -3 -41 -7 -60 -10
-19 -2 -46 -6 -60 -9 -46 -10 -74 -15 -110 -20 -20 -3 -45 -7 -57 -9 -46 -9
-119 -20 -133 -20 -16 0 -16 3 12 84 21 60 29 88 30 108 1 6 4 12 8 12 4 0 7
6 7 13 0 10 34 126 50 167 3 8 7 20 8 25 3 13 85 266 92 285 7 18 7 15 21 65
6 22 26 83 43 135 17 52 32 100 33 105 2 6 6 17 9 25 9 23 51 154 53 165 3 13
63 206 71 225 3 8 7 20 8 25 3 10 52 163 100 310 l22 70 534 2 c294 1 1099 5
1789 8 690 3 1760 7 2378 10 l1123 4 15 -34 c8 -19 16 -42 18 -52 1 -10 6 -25
9 -33 10 -27 119 -355 121 -365 1 -5 6 -23 13 -40 6 -16 27 -82 48 -145 20
-63 39 -122 42 -130 8 -22 14 -43 15 -57 1 -7 5 -13 10 -13 4 0 7 -3 6 -7 -2
-9 19 -85 32 -118 17 -42 23 -61 27 -80 1 -11 7 -29 12 -40 9 -18 44 -122 46
-135 0 -3 16 -50 35 -105 19 -55 35 -104 36 -110 1 -5 12 -36 23 -67 11 -32
17 -58 14 -58 -3 0 -1 -6 4 -12 6 -7 25 -60 43 -118 18 -58 38 -111 43 -117 5
-7 7 -13 3 -13 -3 0 3 -21 13 -47 10 -27 19 -50 19 -53 0 -3 3 -12 6 -20 152
-464 206 -633 206 -645 0 -8 5 -15 12 -15 6 0 9 -3 5 -6 -3 -4 1 -23 9 -43 9
-20 17 -43 18 -51 2 -17 33 -114 46 -145 14 -34 195 -589 195 -600 0 -5 3 -12
6 -15 5 -4 32 -84 45 -132 1 -5 3 -10 4 -13 3 -5 3 -6 15 -50 4 -16 12 -36 18
-42 5 -7 6 -13 2 -13 -4 0 -2 -7 5 -15 7 -8 9 -15 5 -15 -4 0 -2 -7 5 -15 7
-8 10 -15 7 -15 -3 0 12 -49 33 -110 21 -60 36 -110 33 -110 -3 0 -1 -6 4 -12
5 -7 15 -33 22 -58 7 -25 17 -54 22 -65 8 -19 150 -449 155 -470 1 -5 14 -44
29 -85 14 -41 28 -82 30 -90 2 -8 4 -15 5 -15 1 0 3 -7 5 -15 6 -34 207 -637
219 -660 8 -14 11 -33 7 -42 -3 -9 -42 -42 -86 -74 -44 -32 -84 -62 -90 -67
-48 -40 -365 -269 -382 -277 -13 -5 -23 -13 -23 -17 0 -5 -18 -19 -40 -33 -22
-13 -40 -28 -40 -32 0 -4 -6 -8 -14 -8 -8 0 -16 -4 -18 -8 -1 -4 -52 -43 -113
-87 -60 -43 -122 -88 -136 -99 -14 -12 -36 -28 -48 -36 -28 -19 -161 -117
-181 -133 -8 -7 -27 -20 -41 -29 -14 -9 -33 -23 -41 -30 -7 -7 -21 -17 -30
-23 -16 -10 -263 -190 -283 -207 -5 -4 -41 -31 -80 -58 -38 -28 -79 -58 -91
-68 -11 -10 -34 -26 -50 -36 -29 -20 -43 -31 -69 -54 -7 -6 -16 -12 -20 -12
-8 0 -89 -63 -93 -72 -2 -5 -8 -8 -13 -8 -5 0 -17 -7 -26 -15 -23 -18 -155
-116 -298 -220 -61 -44 -114 -83 -120 -87 -95 -73 -116 -88 -123 -88 -5 0 -19
-11 -32 -25 -13 -14 -29 -25 -37 -25 -7 0 -13 -4 -13 -8 0 -10 -87 -72 -100
-72 -6 0 -10 -4 -10 -8 0 -5 -35 -33 -77 -62 -43 -30 -83 -59 -89 -65 -6 -6
-36 -28 -67 -49 -32 -22 -57 -44 -57 -49 0 -6 -3 -8 -6 -4 -3 3 -11 2 -18 -4
-21 -17 -461 -342 -525 -387 -13 -9 -32 -25 -43 -34 -10 -10 -18 -16 -18 -13
0 3 -22 -12 -48 -32 -27 -21 -59 -46 -73 -56 -123 -89 -196 -143 -207 -154 -7
-7 -16 -13 -20 -13 -4 0 -23 -14 -42 -30 -19 -16 -38 -30 -42 -30 -4 0 -13 -6
-20 -13 -7 -7 -71 -55 -143 -107 -71 -52 -131 -98 -133 -102 -2 -5 -10 -8 -17
-8 -7 0 -15 -4 -17 -8 -1 -4 -34 -30 -73 -57 -38 -27 -76 -55 -82 -61 -7 -7
-29 -22 -48 -34 -20 -12 -33 -25 -30 -28 3 -3 119 -5 258 -4 139 0 494 2 789
2 l536 2 121 89 c67 49 126 89 131 89 6 0 10 5 10 10 0 6 8 14 18 17 9 4 22
12 27 18 11 13 286 215 314 230 10 6 25 17 33 25 9 8 26 22 38 30 12 8 28 21
36 28 7 6 15 12 19 12 8 0 89 63 93 73 2 4 10 7 17 7 7 0 15 4 17 8 2 4 25 23
53 42 27 19 55 40 62 46 14 14 209 155 231 169 9 6 19 13 22 16 3 3 48 36 100
74 52 38 97 72 100 75 3 3 21 16 40 30 19 13 40 28 45 32 9 8 308 226 360 263
11 8 54 39 95 70 41 30 84 62 95 70 47 33 281 205 290 213 6 4 33 23 60 42 28
19 52 37 55 40 3 3 30 24 61 47 54 40 57 45 84 130 15 48 31 97 36 108 4 11
18 54 30 95 12 41 26 81 32 88 5 6 7 12 4 12 -3 0 4 26 15 57 11 31 20 65 21
75 1 10 5 18 10 18 5 0 7 6 4 13 -2 6 1 21 6 32 6 11 12 25 13 31 1 7 32 106
69 220 186 580 172 536 173 544 0 3 7 23 15 45 14 36 108 326 113 350 1 6 46
145 99 310 54 165 98 305 100 310 1 6 5 17 8 25 3 8 15 47 27 85 12 39 29 88
37 110 8 22 15 42 14 45 0 3 20 68 45 145 26 77 55 169 65 204 l18 64 -35 106
c-20 58 -37 111 -39 116 -1 6 -5 17 -8 25 -16 40 -69 197 -71 210 -1 8 -5 22
-8 30 -6 13 -30 87 -33 100 -1 3 -4 12 -7 20 -3 8 -20 60 -37 115 -17 55 -36
109 -40 120 -8 18 -90 266 -96 290 -1 6 -5 18 -8 28 -11 27 -18 52 -18 55 1 1
-5 17 -13 36 -8 19 -12 37 -8 40 3 3 0 6 -7 6 -7 0 -9 5 -6 10 4 6 2 16 -3 23
-8 10 -15 30 -27 77 0 3 -52 160 -115 350 -63 190 -115 347 -116 350 0 3 -3
12 -7 20 -7 19 -31 93 -32 100 0 3 -4 11 -8 18 -5 6 -5 17 -2 22 3 6 1 10 -4
10 -6 0 -10 3 -9 8 2 4 -2 21 -9 37 -13 36 -73 219 -79 243 -2 9 -38 121 -80
247 -70 210 -100 275 -127 275 -5 0 -18 10 -28 22 -11 11 -19 18 -19 14 0 -7
-14 4 -51 37 -10 9 -21 17 -24 17 -2 0 -57 39 -122 86 -65 47 -127 92 -138
100 -11 7 -51 36 -88 64 -37 27 -72 50 -77 50 -4 0 -10 3 -12 8 -4 9 -351 261
-387 281 -14 8 -32 22 -39 33 -7 10 -20 18 -28 18 -8 0 -14 3 -14 8 0 4 -18
18 -40 32 -22 13 -40 28 -40 32 0 4 -5 8 -10 8 -9 0 -82 50 -135 93 -5 4 -50
37 -100 72 -49 36 -101 74 -115 85 -14 11 -29 20 -34 20 -5 0 -14 6 -20 13 -6
8 -58 47 -116 88 -58 40 -109 77 -115 82 -5 4 -57 42 -115 83 -58 41 -116 84
-130 94 -14 10 -68 49 -120 86 -52 37 -96 71 -98 76 -2 4 -8 8 -14 8 -6 0 -32
17 -59 38 -26 20 -63 47 -81 60 -67 47 -144 102 -168 122 -25 20 -35 20 -1073
17 -577 -1 -1050 -3 -1051 -4z"/>
<path d="M6834 8773 c-151 -312 -378 -759 -387 -764 -7 -4 -55 -17 -109 -29
l-96 -23 4 -31 c2 -17 6 -51 8 -76 3 -25 7 -56 10 -70 2 -14 7 -49 10 -79 4
-29 8 -56 10 -60 2 -3 7 -35 10 -71 4 -36 9 -74 11 -85 3 -11 7 -38 9 -60 8
-68 26 -199 32 -228 l6 -28 -124 5 c-67 3 -163 8 -213 11 -229 12 -275 13
-281 3 -4 -6 -3 -13 2 -17 5 -3 60 -107 122 -231 327 -647 377 -745 384 -748
4 -2 8 -8 8 -14 0 -13 87 -189 100 -202 4 -4 40 41 78 100 39 60 75 114 81
121 6 7 16 24 23 38 6 14 15 25 20 25 4 0 8 5 8 11 0 5 52 89 115 185 63 96
115 178 115 183 0 5 7 11 15 15 8 3 15 10 15 15 0 6 56 97 125 203 121 186
180 258 210 258 8 0 45 -14 82 -31 38 -17 106 -48 153 -69 47 -21 108 -49 137
-62 l51 -25 -3 51 c-4 63 -13 159 -19 206 -3 19 -8 64 -11 100 -3 36 -7 77 -9
92 -3 25 1 29 38 40 22 6 50 13 61 15 11 2 65 15 120 29 55 14 111 28 125 30
14 3 32 7 40 11 8 3 22 7 30 8 8 1 70 15 137 31 138 33 133 27 107 121 -19 74
-24 93 -29 118 -2 11 -8 35 -13 53 -6 18 -11 35 -11 37 0 3 -3 15 -6 28 -3 12
-7 33 -9 47 -3 14 -11 48 -19 75 -8 28 -12 56 -10 63 3 6 -1 12 -8 12 -7 0
-10 2 -7 5 4 5 -21 121 -42 190 -7 25 -9 32 -15 58 -4 22 -10 27 -23 22 -9 -4
-28 -8 -42 -11 -14 -2 -49 -10 -77 -18 -29 -8 -53 -12 -53 -9 0 3 -7 0 -15 -7
-8 -7 -15 -10 -15 -7 0 3 -15 1 -32 -4 -18 -6 -40 -12 -48 -14 -8 -1 -55 -13
-105 -25 -124 -30 -129 -31 -140 -34 -112 -29 -124 -30 -145 -6 -11 13 -20 26
-20 30 0 3 -10 17 -22 30 -13 13 -51 60 -86 105 -34 44 -75 95 -90 114 -15 18
-31 41 -36 50 -5 9 -13 18 -16 21 -7 4 -96 117 -159 199 -13 17 -27 31 -31 31
-4 0 -20 -26 -36 -57z"/>
<path d="M5898 8712 c-51 -51 -116 -114 -390 -374 -43 -41 -78 -77 -78 -80 0
-4 15 -11 33 -17 17 -5 97 -33 177 -61 80 -29 151 -52 158 -53 6 0 12 -4 12
-9 0 -5 4 -7 8 -4 5 3 21 -2 37 -10 16 -8 36 -16 44 -18 9 -2 23 -6 31 -9 8
-3 44 -15 80 -27 36 -12 72 -24 80 -27 61 -24 110 -39 114 -36 4 4 -6 41 -21
83 -3 8 -8 23 -10 34 -2 10 -12 45 -23 79 -11 33 -20 69 -20 79 0 10 -4 18 -8
18 -5 0 -9 6 -10 13 -1 17 -6 37 -42 157 -17 58 -33 112 -35 120 -28 106 -61
200 -69 199 -6 0 -37 -26 -68 -57z"/>
<path d="M5710 8045 c0 -5 -36 -48 -80 -95 -44 -46 -80 -87 -80 -91 0 -4 33
-15 73 -24 74 -17 77 -18 139 -29 l37 -7 -10 33 c-23 75 -30 98 -28 100 1 2
-3 13 -10 26 -7 13 -14 32 -16 42 -5 24 -24 59 -25 45z"/>
<path d="M8455 6199 c-66 -32 -126 -58 -132 -58 -7 -1 -13 -5 -13 -11 0 -5 -3
-9 -7 -8 -5 1 -37 -12 -73 -29 -36 -17 -128 -61 -205 -97 -77 -37 -147 -71
-155 -76 -8 -6 -26 -15 -40 -21 -14 -5 -45 -20 -70 -32 -25 -12 -47 -22 -50
-23 -3 0 -72 -33 -155 -73 -82 -41 -199 -97 -260 -126 -60 -29 -173 -83 -250
-120 -148 -71 -267 -128 -508 -244 -82 -39 -152 -71 -157 -71 -4 0 -10 -6 -12
-12 -3 -7 -4 -256 -4 -554 1 -467 3 -542 16 -555 8 -8 38 -32 65 -53 58 -46
72 -57 103 -86 12 -11 25 -20 28 -20 3 0 11 -6 18 -13 8 -7 33 -29 57 -48 23
-18 53 -44 66 -56 13 -13 28 -23 33 -23 4 0 10 -3 12 -7 2 -5 30 -31 63 -58
33 -28 61 -55 61 -60 1 -6 5 -37 8 -70 4 -33 9 -71 11 -85 10 -67 14 -102 20
-166 4 -38 8 -71 10 -74 2 -3 6 -34 10 -70 3 -36 8 -76 10 -90 2 -14 7 -43 9
-65 3 -22 8 -58 11 -80 2 -22 7 -64 11 -93 3 -29 7 -61 9 -70 2 -10 6 -45 10
-77 8 -65 12 -100 20 -155 2 -19 7 -55 10 -80 2 -25 7 -54 9 -65 3 -11 5 -23
5 -27 1 -4 7 -5 14 -3 11 4 57 12 117 20 14 2 41 6 60 10 19 3 53 7 75 10 22
3 47 7 55 10 8 2 38 6 65 10 28 3 57 8 65 10 8 2 35 6 60 9 25 4 56 8 70 10
32 6 98 16 130 21 14 2 39 6 55 9 59 9 110 17 140 21 17 2 46 6 65 10 40 7 66
11 130 20 25 3 58 10 73 15 17 6 25 6 22 0 -4 -6 3 -7 18 -1 13 5 48 12 78 16
30 4 57 9 60 11 6 3 4 79 -1 79 -3 0 -8 32 -14 98 -3 37 -8 77 -10 90 -3 12
-8 45 -11 72 -3 28 -7 64 -10 80 -4 28 -12 95 -21 175 -6 58 -13 105 -14 105
-1 0 -3 23 -6 50 -2 28 -6 59 -9 71 -3 16 12 35 67 85 39 35 93 85 121 112 27
26 53 47 58 47 5 0 9 7 9 15 0 8 4 15 8 15 8 0 101 82 190 168 30 28 56 52 58
52 2 0 23 19 47 43 25 23 92 86 149 139 72 67 104 104 105 120 0 30 13 163 17
185 2 10 7 56 11 103 4 47 9 93 10 102 2 9 6 45 9 80 7 77 14 138 21 198 3 25
7 70 10 100 10 108 15 156 21 195 10 59 5 107 -11 126 -8 8 -15 20 -15 26 0 6
-7 17 -16 24 -9 7 -19 20 -23 29 -10 25 -224 345 -233 348 -4 2 -8 8 -8 13 0
8 -226 355 -254 390 -7 8 -21 31 -32 49 -42 74 -36 74 -169 9z"/>
<path d="M3018 4593 c6 -10 21 -52 35 -93 14 -41 42 -122 62 -180 19 -58 39
-114 44 -125 5 -11 23 -63 41 -115 17 -52 34 -102 37 -110 3 -8 7 -18 8 -22 2
-5 3 -9 5 -10 1 -2 3 -10 5 -18 2 -8 9 -28 16 -45 6 -16 13 -36 15 -43 2 -11
76 -223 91 -262 3 -8 8 -24 10 -34 2 -11 8 -25 14 -33 6 -7 9 -13 6 -13 -3 0
6 -30 20 -67 13 -38 31 -86 38 -108 7 -22 38 -112 70 -200 31 -88 58 -164 59
-170 2 -5 6 -17 9 -25 4 -8 20 -55 37 -105 16 -49 39 -117 50 -150 25 -71 32
-90 30 -90 0 0 11 -31 26 -70 15 -38 32 -88 40 -110 7 -22 42 -125 79 -230 37
-104 68 -198 70 -207 2 -9 9 -26 15 -38 11 -21 21 -54 22 -77 1 -7 5 -13 8
-13 7 0 24 -58 21 -72 0 -5 4 -8 10 -8 5 0 7 -5 4 -10 -4 -6 -3 -16 2 -23 5
-7 16 -32 23 -57 7 -25 16 -49 18 -54 9 -17 103 -291 105 -306 1 -8 5 -17 9
-20 4 -3 9 -17 12 -30 5 -22 41 -124 59 -170 16 -39 75 -225 72 -228 -2 -2
-11 3 -22 12 -16 13 -228 168 -283 206 -47 33 -156 112 -170 123 -8 7 -53 39
-100 71 -47 33 -93 67 -102 77 -10 10 -26 20 -38 24 -11 3 -20 11 -20 16 0 5
-6 9 -14 9 -8 0 -21 8 -28 18 -7 11 -23 24 -35 31 -20 10 -237 165 -274 195
-9 7 -39 28 -68 47 -28 19 -51 37 -51 41 0 5 -4 8 -10 8 -8 0 -55 32 -120 83
-9 7 -36 25 -60 42 -25 16 -49 36 -53 42 -4 7 -14 13 -22 13 -7 0 -15 3 -17 8
-2 6 -306 228 -371 271 -12 8 -41 30 -64 48 -23 18 -46 33 -51 33 -6 0 -12 4
-14 8 -1 4 -50 42 -108 82 -58 41 -110 79 -117 85 -7 5 -19 16 -27 23 -8 6
-17 12 -20 12 -3 0 -41 27 -85 60 -44 33 -83 60 -86 60 -3 0 -17 11 -31 25
-14 14 -30 25 -37 25 -7 0 -19 9 -27 20 -8 11 -20 20 -27 20 -7 0 -13 5 -13
10 0 6 -5 10 -10 10 -6 0 -40 22 -75 50 -35 28 -69 50 -75 50 -5 0 -10 3 -10
8 0 4 -17 18 -38 32 -40 27 -116 83 -145 106 -9 8 -20 14 -23 14 -7 0 -88 63
-92 73 -2 4 -9 7 -15 7 -7 0 -24 11 -39 25 -15 14 -30 25 -33 25 -3 0 -11 4
-18 10 -57 46 -76 60 -85 60 -6 0 -12 4 -14 8 -1 4 -25 23 -53 42 -27 19 -52
37 -55 40 -12 13 -148 110 -154 110 -3 0 -14 7 -23 16 -10 9 -52 40 -93 70
-41 30 -86 63 -100 73 -14 11 -29 19 -34 19 -5 0 -12 6 -17 13 -26 42 -7 -25
73 -266 49 -148 91 -274 92 -280 2 -5 6 -17 9 -25 3 -8 11 -33 17 -55 6 -22
15 -49 20 -60 10 -22 79 -232 84 -255 6 -23 87 -272 97 -295 5 -11 20 -58 35
-105 15 -47 34 -92 43 -100 18 -17 91 -72 146 -110 20 -14 58 -42 85 -63 27
-20 54 -37 59 -37 5 0 11 -4 13 -8 2 -4 48 -40 103 -79 55 -39 107 -77 116
-85 9 -7 23 -17 31 -23 61 -39 128 -88 138 -100 7 -8 18 -15 25 -15 8 0 15 -4
17 -8 2 -7 147 -113 322 -237 23 -16 89 -64 145 -105 57 -41 113 -82 125 -90
17 -12 103 -75 271 -196 136 -99 205 -148 231 -167 17 -12 60 -42 94 -67 34
-25 70 -49 79 -55 9 -5 18 -13 21 -16 5 -6 175 -129 254 -184 24 -16 54 -38
67 -47 13 -10 77 -56 141 -103 l117 -86 766 3 c740 3 765 4 743 21 -13 10 -31
25 -41 33 -9 7 -19 14 -22 14 -4 0 -78 53 -111 79 -6 5 -35 26 -65 47 -30 21
-55 42 -57 46 -2 5 -8 8 -12 8 -5 0 -40 23 -77 51 -37 27 -77 57 -88 64 -139
98 -250 184 -248 192 4 20 168 348 175 351 5 2 8 9 8 16 0 7 53 118 117 247
64 129 117 236 118 239 0 3 52 109 115 235 63 127 115 233 115 237 0 3 3 10 8
14 10 11 67 132 67 144 0 6 4 10 8 10 6 0 24 34 37 70 8 23 52 106 58 111 5 3
9 10 9 15 0 14 170 358 181 365 5 3 7 8 5 10 -3 4 25 62 163 340 l77 157 -121
58 c-67 31 -183 86 -257 121 -74 36 -171 82 -215 103 -44 21 -116 55 -160 76
-44 20 -138 65 -210 99 -71 34 -155 74 -185 88 -54 24 -204 96 -387 183 -50
24 -96 44 -102 44 -6 0 -11 5 -11 10 0 6 -5 10 -11 10 -6 0 -33 11 -59 24 -27
13 -51 22 -54 19 -3 -4 -6 -1 -6 5 0 7 -4 12 -9 12 -9 0 -91 38 -361 167 -63
31 -153 73 -200 95 -47 22 -125 59 -175 83 -49 23 -101 46 -113 50 -21 6 -22
5 -14 -12z"/>
</g>
</svg>
